<svg xmlns="http://www.w3.org/2000/svg" version="1.1" xmlns:xlink="http://www.w3.org/1999/xlink" width="1000" height="1000"><g clip-path="url(#SvgjsClipPath1030)"><rect width="1000" height="1000" fill="#ffffff"></rect><g transform="matrix(1.2364760432766615,0,0,1.2364760432766615,101.85471406491502,100)"><svg xmlns="http://www.w3.org/2000/svg" version="1.1" xmlns:xlink="http://www.w3.org/1999/xlink" width="644" height="647"><svg xmlns="http://www.w3.org/2000/svg" width="644" height="647" viewBox="0 0 170.4 171.2">
  <path d="M90.5 60.6q-1.5-.1-2.8.4l-12.2 6q-6 2.6-12 4.5-4 1.3-8 3.2c-1 .7-2.2 1.6-2.4 3-.4 2.9 0 5.9 0 8.8q-.1 6.4-.7 13-.6 8-.7 16.2l.2 11.5q.2.8-.6 1.4c-2.4 1.3-4.3 3.3-6.8 4.5-5.2 2.5-10.2 5.3-15.5 7.4-2.2.9-4.7 1.3-6.6 2.7a11 11 0 0 0-4 7.4c-.5 3-.2 6.3 0 9.4q.8 13.5 1.1 26.9.1 9.4 1.3 18.8c.4 2.9 1 6 .4 8.8-.4 1.9-1.7 3.4-1.8 5.3-.2 2.2 1.5 4 3.5 4.8 3.5 1.2 7.4.8 11 .7H41l7.3-.2c7.3.2 14.6 1 22 1.6q6.5.5 13 1.3l14 2.2q6.9.8 13.8 1.2 14.4 1 28.8 2.4c4.3.4 8.7.5 13 1.5q2.3.6 4.5.6 3-.2 5.7-1.5c7.6-3 14.6-7.2 22-10.6 2.5-1.1 5-2.8 6-5.3q1-2.5 1.3-5.1c.5-5.6-.3-11-.5-16.6-.5-13.2-1.3-26.4-1.1-39.5l.1-6.2c.1-2 1.2-3.9.8-5.8a10 10 0 0 0-2.4-4.4q-1.6-1.7-3.7-1.7l-5.4.3q-4.6-.1-9.3-.8c-3.1-.4-6.3-.9-9.5-.6q-.9 0-1.2-.9c-.8-3.7-.4-7.5-.9-11.3q-1.4-10.2-1.3-20.5c.1-4.7-.4-9.3 0-14 .2-4.7-.5-9.3-.3-14 .1-2.5.2-5.3-1-7.7-.8-1.6-2.6-2.3-4.2-2.7q-2.7-.6-5.4-.4l-5.4-.1-14.5-1.9c-8-.8-15.7-2.7-23.7-3l-5 .1c-2.8 0-5.3-.9-8-1m3 9c4.1.1 8 1.2 12 1.6 10.1 1 39.2-1.3 30.1 3-4 1.9-8.1 3.3-12 5.4-.7.3-1.1 1-1.8 1.1h-6.1L95 79.3q-11.7-.5-23.4-1.5c-.6 0-2.2.1-1.7-.1a307 307 0 0 1 19.2-7q1.8-.9 3.7-1zm45.8 5.2q.7.1 0 0m7.6 4c.6-.2.6.4.7.8a50 50 0 0 1 1.4 16.7q-.5 7.8-.2 15.7c.5 8.1 2 16.2 2 24.3 0 1 .4 2 0 2.8-.3.7-1.2.7-1.8 1q-3 1.2-5.7 2.6c-4.3 2-8.5 4.5-13.1 6-.4.2-1 1.1-1 .2q.4-2.4 0-4.9-.5-4.6-.7-9.3a577 577 0 0 1-.2-35.5V93c-.1-1.7-.2-3.6.7-5.1.7-1.3 2.2-1.8 3.5-2.3 4.8-2 9-5 14-6.7zM63.4 86c10 .7 20 2 29.9 2.7 7.1.6 14.4.2 21.4 1.8q2 .3 3.7 1c.6.4.4 1.3.5 1.8v7c.7 14.1-.1 28.3 1.2 42.3l1 9.9c0 .6-1 .2-1.5.2q-6.5-1-13-1.7l-8.4-1-13.8-2c-6.7-.7-13.6-.5-20.3-1.7-.6 0-1.5 0-1.8-.6-.7-1.2-.5-2.6-.5-4q-.8-13-1.1-26.3c-.2-9.2.9-18.4 1.3-27.6 0-.6-.4-1.7.1-1.8zm-10.8 53.8c.4 2.3 3 6.9.8 6.8l-10.2-.5c-1.7 0-6.6.4-5-.2Q45 142.8 52 140zm124 6.1q-.5.5 0 0m-16.2.8c4.4 0 17-.9 13.1 1q-5.7 2.7-11.6 4.7-1.6.5-3.3.8-1.8.7-3.6.9-5.5.4-11 .2c-1.8 0-7.1.6-5.4-.1l13.4-5.6a19 19 0 0 1 8.4-1.9m21.6 6.4c.5 4.2.2 8.4.1 12.6q-.2 8.3.3 16.5.8 12.6 1 25.2c0 1.8.5 3.8-.2 5.4-.6 1.2-1.8 1.9-2.8 2.5l-6 3.6q-5.9 2.8-11.7 5.8-.6.6-.8-.2l-.1-6.4q-.3-9.6.8-19.2.7-9.2 1-18.5c.3-6 .9-12 .8-18 0-.8-.8-2.1-.1-2.4 5-2.3 10.4-3 15.2-5.7q1.2-.7 2.5-1.2m-48.7.6q.1 0 0 0m-104.6.3 21 1.4c10.5.4 21 .7 31.3 1.8 1.6.2 3.2.2 4.6 1q1 .6 1 1.8-.1 2.4-.5 4.9-1.1 15-.4 30c.3 6.6 1.4 13.1 1 19.7l.1 3.4c0 .6.2 1.3-.7 1.1-5.7-1.6-11.7-1.5-17.6-2-12.5-.9-25-.7-37.4-1-.6 0-1.4 0-1.4-.8 0-1.8.6-3.6.6-5.4-.1-11.1-1.4-22.2-1.7-33.3-.2-7-1.4-14-.5-21q0-1 .6-1.6m105.6 2.3-.3.2zm-36.5 3.3q3 .2 5.7.7c6.5.7 13.1 1.6 19.7 1.8q4.4.1 8.7.5 3.3.4 6.5.4 3 .1 5.8.4 3.7.3 7.3 1c1 0 2.5.3 2.9 1.4q.5 1.8.6 3.7.6 7.8 0 15.7l-1.1 14.4q-1 9.6-.8 19.3c0 2 2.8 6 .7 6.2q-4.1.3-8.2 0l-14.1-.9q-13.8-1-27.4-2.7l-6.4-.9c-.6 0-1.8.1-1.9-.5v-3.6c-.3-3.9.1-7.8 0-11.8-.2-5.8-1-11.6-1-17.4q.2-5.6.8-11.1c.3-5-.2-10 .4-14.9 0-.5 0-1.3.7-1.5zm56.7 65.4c.2 0-.2 0 0 0m6.5.3c.5 0-.3.1 0 0m1.2.6" style="display:inline;fill:#423b93;fill-opacity:1" transform="matrix(.97 0 0 .97 -16.7 -57.7)"></path>
</svg></svg></g></g><defs><clipPath id="SvgjsClipPath1030"><rect width="1000" height="1000" x="0" y="0" rx="350" ry="350"></rect></clipPath></defs></svg>
